<?xml version="1.0" encoding="utf-8"?>
<!-- Generator: Adobe Illustrator 27.5.0, SVG Export Plug-In . SVG Version: 6.00 Build 0)  -->
<svg version="1.1" xmlns="http://www.w3.org/2000/svg" xmlns:xlink="http://www.w3.org/1999/xlink" x="0px" y="0px"
	 viewBox="0 0 500 500" style="enable-background:new 0 0 500 500;" xml:space="preserve">
<g id="BACKGROUND">
	<rect style="fill:#FFFFFF;" width="400" height="400"/>
</g>
<g id="OBJECTS">
	<path style="fill:#E1D1B7;" d="M119.32,342.771c0,0-66.099-18.331-69.694-125.294c-2.919-86.858,53.099-135.516,131.649-145.429
		c114.399-14.437,270.799,16.844,270.618,111.114C451.699,284.542,395.058,389.142,119.32,342.771z"/>
	<g>
		<ellipse style="fill:#EBE3D4;" cx="178.348" cy="441.508" rx="130.062" ry="19.343"/>
		<g>
			<g>
				<path style="fill:none;stroke:#332737;stroke-linecap:round;stroke-linejoin:round;stroke-miterlimit:10;" d="M361.742,413.359
					c0,0.773,71.818-37.205,71.818-37.205"/>

					<line style="fill:none;stroke:#332737;stroke-linecap:round;stroke-linejoin:round;stroke-miterlimit:10;" x1="361.742" y1="271.669" x2="361.742" y2="459.954"/>

					<line style="fill:none;stroke:#332737;stroke-linecap:round;stroke-linejoin:round;stroke-miterlimit:10;" x1="433.56" y1="230.126" x2="433.56" y2="418.412"/>
			</g>
			<polygon style="fill:#8B6D62;" points="374.508,285.758 102.519,283.758 102.519,276.73 174.432,228.909 441.715,223.344
				441.715,233.344 			"/>
			<polygon style="fill:#A68274;" points="374.508,276.73 102.519,276.73 177.195,223.344 441.715,223.344 			"/>
		</g>
		<g>
			<g>
				<g>
					<g>
						<path style="fill:#3E4F45;" d="M377.776,164.144c-2.92-2.388-6.803-3.393-9.627-5.893c-2.468-2.185-3.91-5.359-4.486-8.605
							s-0.349-6.581,0.09-9.848c4.04,3.824,9.934,5.008,14.376,8.357c3.721,2.805,6.254,7.105,7.027,11.7
							c0.613,3.645,0.444,10.35-2.616,12.855C381.466,169.45,380.607,166.46,377.776,164.144z"/>
					</g>
					<g>
						<path style="fill:#3E4F45;" d="M387.737,183.613c1.271-3.395,4.727-5.433,8.104-6.751c3.377-1.317,7.019-2.245,9.813-4.554
							c3.825-3.16,5.324-8.262,6.627-13.049c-3.647,1.129-7.703,1.814-11.351,2.943c-2.15,0.666-4.346,1.354-6.156,2.691
							c-2.3,1.7-3.768,4.297-4.857,6.941C388.351,175.639,387.963,179.506,387.737,183.613z"/>
					</g>
					<g>
						<path style="fill:#3E4F45;" d="M386.783,193.39c0,0,3.912-6.123,9.354-5.991c5.443,0.132,11.31,0.488,15.684-2.042
							C411.822,185.357,406.833,202.23,386.783,193.39z"/>
					</g>
					<g>
						<path style="fill:#3E4F45;" d="M409.377,204.954c-1.86,0.232-3.834,0.448-5.537-0.335c-0.815-0.375-1.513-0.957-2.265-1.446
							c-3.613-2.348-8.613-2.343-12.221,0.013c-0.624,0.408-1.246,0.937-1.404,1.666c2.112-0.034,4.66,0.129,6.659,0.814
							c1.996,0.684,3.691,2.032,5.597,2.937c1.906,0.905,4.299,1.311,6.04,0.119C407.374,207.947,408.63,206.101,409.377,204.954z"
							/>
					</g>
					<path style="fill:#3E4F45;" d="M384.29,217.953c-0.111-6.796,1.15-11.406,3.749-13.7c1.873-1.654,3.734-1.414,3.813-1.404
						l-0.083,0.594c-0.017-0.001-1.686-0.205-3.349,1.274c-1.684,1.498-3.664,5.009-3.529,13.226L384.29,217.953z"/>
					<g>
						<path style="fill:#3E4F45;" d="M375.392,188.884c-1.341-4.474-2.759-8.993-5.257-12.94
							c-4.82-7.616-13.397-12.709-16.639-21.118c-0.43,6.093-0.776,13.319,0.562,19.279c0.824,3.669,2.555,7.461,5.893,9.193
							c1.52,0.789,3.241,1.077,4.909,1.466c3.644,0.849,7.165,2.222,10.421,4.064C375.432,188.44,375.512,189.283,375.392,188.884z"
							/>
					</g>
					<g>
						<path style="fill:#3E4F45;" d="M366.305,188.604c-3.998-1.245-6.997,2.036-13.349-2.042c-0.779,3.264,0.875,6.952,3.83,8.543
							c3.776,2.032,8.47,0.625,12.661,1.529c1.358,0.293,6.621,2.42,6.621,2.42S375.539,191.479,366.305,188.604z"/>
					</g>
					<path style="fill:#3E4F45;" d="M380.774,218.192l-0.6-0.015c0.005-0.191,0.453-19.211-1.414-23.422
						c-0.766-1.727-2.663-4.931-7.358-10.386c-0.159-0.184-0.259-0.3-0.285-0.336l0.478-0.363c0.024,0.032,0.116,0.138,0.262,0.307
						c3.807,4.425,6.314,7.969,7.451,10.535C381.229,198.846,380.793,217.404,380.774,218.192z"/>
					<path style="fill:#3E4F45;" d="M380.198,209.425c-0.009-0.55-1.011-6.433-4.354-10.171c-3.396-3.798-7.088-4.726-7.125-4.734
						l0.141-0.584c0.157,0.038,3.903,0.972,7.431,4.918c3.488,3.901,4.497,9.895,4.507,10.562L380.198,209.425z"/>
					<path style="fill:#3E4F45;" d="M381.395,192.393l-0.269-0.536c5.852-2.942,7.612-12.464,7.629-12.56l0.591,0.105
						C389.274,179.805,387.517,189.316,381.395,192.393z"/>
					<path style="fill:#3E4F45;" d="M383.244,217.866l-0.6-0.024c0.006-0.154,0.637-15.501,1.651-20.688
						c1.06-5.415,7.454-5.336,7.521-5.329l-0.013,0.6c-0.238-0.003-5.957-0.067-6.919,4.844
						C383.878,202.411,383.25,217.712,383.244,217.866z"/>
					<path style="fill:#3E4F45;" d="M381.803,218.532c-0.112-1.629-2.679-40.014,1.65-51.115l0.56,0.218
						c-4.281,10.976-1.639,50.459-1.612,50.857L381.803,218.532z"/>
				</g>
			</g>
			<path style="fill:#FEF1EE;" d="M400.511,236.004c0,7.783-8.679,10.621-19.385,10.621c-10.706,0-19.385-2.837-19.385-10.621
				c0-7.784,8.679-17.566,19.385-17.566C391.832,218.438,400.511,228.22,400.511,236.004z"/>
			<rect x="376.181" y="212.087" style="fill:#FEF1EE;" width="9.89" height="13.262"/>
		</g>
		<g>
			<polygon style="fill:#332737;" points="330.051,158.489 231.796,159.092 232.239,231.267 196.428,263.945 197.828,267.227
				302.715,267.421 334.051,232.214 333.646,161.364 			"/>

				<rect x="232.017" y="158.79" transform="matrix(1 -0.0061 0.0061 1 -1.1901 1.7282)" style="fill:#E1D1B7;" width="98.257" height="72.177"/>
			<g>
				<path style="fill:#E69C9C;" d="M296.99,180.131c-1.028-5.912-5.666-10.477-7.472-10.389c-2.262,0.11-2.916,2.339-2.916,2.339
					s-3.882-2.511-5.866-2.098c-1.983,0.412-9.234,6.014-9.904,8.472c-0.036,0.131-0.058,0.285-0.073,0.452
					c-0.492,3.017-3.424,20.473-5.906,23.427c-1.564,1.861,7.635,6.655,22.372,4.872c6.806-0.823,16.403-4.602,19.666-6.946
					C309.975,198.046,300.999,194.082,296.99,180.131z"/>
				<path style="fill:#B66155;" d="M265.408,193.65c-1.455-1.748-4.247,0.416-3.994,2.441c0.253,2.025-0.685,3.021-1.485,2.174
					c-0.799-0.848-8.378-9.965-10.145-5.896c0,0-3.74-0.422-3.079,2.269c0,0-3.031,0.622-1.418,2.801c0,0-2.887,0.569-1.432,2.317
					c1.455,1.748,8.8,6.226,9.857,10.89c1.057,4.664,1.383,13.042,2.811,20.043l14.232-0.881
					c-2.521-8.228-5.551-23.374-5.551-23.374S266.864,195.398,265.408,193.65z"/>
				<path style="fill:none;stroke:#332737;stroke-linecap:round;stroke-linejoin:round;stroke-miterlimit:10;" d="M249.785,192.369
					c0,0,3.138,2.537,4.704,4.257"/>
				<path style="fill:none;stroke:#332737;stroke-linecap:round;stroke-linejoin:round;stroke-miterlimit:10;" d="M246.705,194.639
					c0,0,2.542,1.896,4.642,3.635"/>
				<path style="fill:none;stroke:#332737;stroke-linecap:round;stroke-linejoin:round;stroke-miterlimit:10;" d="M245.288,197.439
					c0,0,3.018,1.079,4.314,2.772"/>
				<path style="fill:none;stroke:#332737;stroke-linecap:round;stroke-linejoin:round;stroke-miterlimit:10;" d="M256.361,196.354
					c0,0-5.035-0.011-7.421,5.039"/>
				<path style="fill:#B66155;" d="M293.481,205.459c0,0,15.256-0.598,18.154,2.505c2.897,3.102-0.385,31.571-0.385,31.571
					l-47.461-11.699c0,0,3.223-16.151,5.436-18.542c1.654-1.787,12.81-3.272,12.81-3.272L293.481,205.459z"/>
				<path style="fill:none;stroke:#332737;stroke-linecap:round;stroke-linejoin:round;stroke-miterlimit:10;" d="M303.898,216.142
					c0,0-1.931,11.012-2.873,12.26"/>
				<path style="fill:none;stroke:#332737;stroke-linecap:round;stroke-linejoin:round;stroke-miterlimit:10;" d="M273.881,215.418
					c0,0,0.01,7.983-0.347,10.318"/>
				<path style="fill:#B66155;" d="M293.481,205.459l-0.512-19.966l-11.526-0.423l0.592,20.951
					C282.035,206.021,285.979,210.13,293.481,205.459z"/>
				<path style="fill:#332737;" d="M281.965,203.536l-0.263-9.326l7.819-0.528C289.521,193.682,289.827,203.381,281.965,203.536z"/>
				<path style="fill:#B66155;" d="M274.437,189.839c0.218,1.211,0.609,2.515,1.205,3.916c0.037,0.084,0.073,0.162,0.116,0.246
					c1.291,2.815,3.745,4.605,6.807,4.398c5.279-0.356,11.174-2.412,10.487-12.583c-0.392-5.815-4.329-8.309-9.615-7.953
					C278.866,178.172,273.045,182.049,274.437,189.839z"/>
				<path style="fill:#332737;" d="M282.282,186.238c0.022,0.327,0.305,0.574,0.632,0.552c0.327-0.022,0.574-0.305,0.552-0.632
					c-0.022-0.327-0.305-0.574-0.632-0.552C282.507,185.629,282.26,185.912,282.282,186.238z"/>
				<path style="fill:#332737;" d="M275.911,186.668c0.022,0.327,0.305,0.574,0.632,0.552c0.327-0.022,0.574-0.305,0.552-0.632
					c-0.022-0.327-0.305-0.574-0.632-0.552C276.136,186.059,275.889,186.342,275.911,186.668z"/>
				<path style="fill:none;stroke:#332737;stroke-linecap:round;stroke-linejoin:round;stroke-miterlimit:10;" d="M279.764,187.012
					c0,0-0.299,1.96-1.897,3.162c-0.918,0.691,1.27,0.844,1.27,0.844"/>
				<path style="fill:#FFFFFF;" d="M280.451,193.423c0.975,0.072,1.957-0.064,2.884-0.4c0,0,0.211,3.131-1.246,3.107
					C280.632,196.106,280.451,193.423,280.451,193.423z"/>
				<path style="fill:#9E4835;" d="M282.596,190.881c0.081,1.205,1.124,2.116,2.329,2.035s2.116-1.124,2.034-2.329
					c-0.081-1.205-1.124-2.116-2.329-2.034S282.514,189.676,282.596,190.881z"/>
				<path style="fill:#9E4835;" d="M274.437,189.839c0.218,1.211,0.609,2.515,1.205,3.916c0.037,0.084,0.073,0.162,0.116,0.246
					c0.888-0.32,1.497-1.202,1.43-2.2c-0.081-1.201-1.12-2.115-2.328-2.033C274.718,189.776,274.577,189.798,274.437,189.839z"/>
				<path style="fill:#DB8A41;" d="M271.235,229.67c0,0,0.626-7.619,1.34-8.585c0.714-0.966,4.39-3.738,6.489-4.197
					c2.346-0.513,6.948,5.887,9.307,6.065c2.359,0.178,8.399-5.541,10.017-5.548c1.619-0.007,3.8,4.145,4.736,6.834
					c0.935,2.689-0.57,13.151-0.57,13.151L271.235,229.67z"/>
				<polygon style="fill:#DB8A41;" points="278.814,218.392 276.985,206.845 278.102,206.641 279.701,218.198 				"/>
				<polyline style="fill:#DB8A41;" points="297.784,218.348 299.421,205.458 300.41,205.495 298.656,218.764 				"/>
				<path style="fill:none;stroke:#332737;stroke-linecap:round;stroke-linejoin:round;stroke-miterlimit:10;" d="M267.026,214.997
					c0,0,2.958,11.067,3.729,14.812"/>
				<path style="fill:#E69C9C;" d="M280.655,173.591c-1.261,0.216-2.562,7.747-0.144,8.291c2.418,0.544,9.055-0.506,9.038,0.67
					c-0.073,5.096,2.648,4.507,2.648,4.507s1.56-0.339,2.102-2.925C294.839,181.548,292.342,171.586,280.655,173.591z"/>
				<path style="fill:#B66155;" d="M296.341,188.204c0.32,1.464-0.607,2.91-2.071,3.23c-1.464,0.32-2.91-0.607-3.231-2.071
					c-0.32-1.464,0.607-2.91,2.071-3.23C294.574,185.813,296.02,186.74,296.341,188.204z"/>
				<path style="fill:none;stroke:#332737;stroke-linecap:round;stroke-linejoin:round;stroke-miterlimit:10;" d="M293.31,190.161
					c0,0-0.962-2.015,1.294-2.812"/>
			</g>
			<polygon style="fill:#FEF1EE;" points="196.428,263.945 300.683,263.343 330.494,230.665 232.239,231.267 			"/>
			<polygon style="fill:#F2E6E3;" points="239.685,234.609 223.533,249.348 300.804,249.348 314.25,234.609 			"/>
			<polygon style="fill:#F2E6E3;" points="239.685,234.609 223.533,249.348 300.804,249.348 314.25,234.609 			"/>
			<polygon style="fill:#694556;" points="247.202,251.95 241.627,257.037 261.297,257.037 265.938,251.95 			"/>
			<g>
				<g>
					<path style="fill:#FEF1EE;" d="M327.07,161.507l0.406,66.176l-92.255,0.566l-0.406-66.176L327.07,161.507 M330.051,158.489
						l-98.255,0.603l0.443,72.176l98.255-0.603L330.051,158.489L330.051,158.489z"/>
				</g>
			</g>

				<line style="fill:none;stroke:#332737;stroke-linecap:round;stroke-linejoin:round;stroke-miterlimit:10;" x1="252.45" y1="256.67" x2="256.235" y2="252.008"/>

				<line style="fill:none;stroke:#332737;stroke-linecap:round;stroke-linejoin:round;stroke-miterlimit:10;" x1="247.033" y1="252.064" x2="265.696" y2="251.95"/>
		</g>
		<g>

				<line style="fill:none;stroke:#332737;stroke-linecap:round;stroke-linejoin:round;stroke-miterlimit:10;" x1="126.298" y1="366.714" x2="198.064" y2="397.898"/>

				<line style="fill:none;stroke:#332737;stroke-linecap:round;stroke-linejoin:round;stroke-miterlimit:10;" x1="198.281" y1="367.226" x2="126.081" y2="397.386"/>
			<path style="fill:#3D2A40;" d="M129.539,339.98c0,0-19.592,103.625-16.378,105.262c3.214,1.637,28.186-102.486,28.186-102.486
				L129.539,339.98z"/>
			<path style="fill:#3D2A40;" d="M193.562,340.457c0,0,18.043,103.906,14.806,105.495c-3.238,1.589-26.654-102.895-26.654-102.895
				L193.562,340.457z"/>

				<line style="fill:none;stroke:#332737;stroke-linecap:round;stroke-linejoin:round;stroke-miterlimit:10;" x1="85.168" y1="366.407" x2="156.934" y2="397.591"/>

				<line style="fill:none;stroke:#332737;stroke-linecap:round;stroke-linejoin:round;stroke-miterlimit:10;" x1="157.151" y1="366.919" x2="84.951" y2="397.079"/>
			<path style="fill:#B66155;" d="M88.409,339.673c0,0-19.592,103.625-16.378,105.262c3.214,1.637,28.186-102.486,28.186-102.486
				L88.409,339.673z"/>
			<path style="fill:#B66155;" d="M152.432,340.151c0,0,18.044,103.906,14.806,105.495c-3.238,1.589-26.654-102.895-26.654-102.895
				L152.432,340.151z"/>
			<path style="fill:#FEF1EE;" d="M72.596,225.1c-13.525,11.121-13.521,82.632-2.9,100.454c7.452,12.505,17.676,24.579,44.42,27.753
				c29.009,3.442,58.604,0.437,76.936-6.416c18.332-6.853,13.6-21.146,11.488-26.4c-2.112-5.253-30.583-8.692-34.852-13.025
				c-4.269-4.333-3.238-70.46-11.757-81.745C149.567,217.29,98.737,203.605,72.596,225.1z"/>
			<path style="fill:none;stroke:#332737;stroke-linecap:round;stroke-linejoin:round;stroke-miterlimit:10;" d="M75.781,293.505
				c0,0,0,35.604,30.09,46.078c22.483,7.826,63.817,10.843,84.351-5.38"/>
		</g>
		<g>
			<g>
				<path style="fill:#B66155;" d="M240.776,401.623c0,0-6.055,19.709,5.731,32.114c1.611,1.696,5.286,7.656,3.328,10.334
					c-1.064,1.455-1.919,2.842-6.282,1.056c-2.354-0.964-13.994-11.896-16.79-13.193c-3.56-1.652-11.11-3.047-11.708-6.527
					c-0.598-3.481,5.877-12.059,5.877-12.059l2.177-14.989L240.776,401.623z"/>
				<path style="fill:#B66155;" d="M240.776,401.623c0,0,20.622-77.095,18.308-83.31c-2.314-6.215-87.394-21.254-87.394-21.254
					s-26.221,29.437-7.052,48.832h60.608c0,0-3.741,43.769-4.313,67.457L240.776,401.623z"/>
				<path style="fill:#B66155;" d="M260.627,371.358c0,0-8.657,22.231-3.311,35.172c0.893,2.162,2.98,8.814,0.362,10.851
					c-1.423,1.107-2.626,2.205-6.33-0.71c-1.999-1.573-10.188-15.283-12.52-17.298c-2.97-2.566-9.846-5.981-9.464-9.492
					c0.381-3.511,8.964-9.98,8.964-9.98l6.211-13.814L260.627,371.358z"/>
				<path style="fill:#B66155;" d="M260.04,373.272c0,0,19.762-63.81,17.429-74.214c-1.451-6.471-46.054-18.35-46.054-18.35
					s-49.159-2.136-36.054,21.779l54.448,11.791c0,0-1.549,32.293-7.283,55.135L260.04,373.272z"/>
				<path style="fill:none;stroke:#332737;stroke-linecap:round;stroke-linejoin:round;stroke-miterlimit:10;" d="M250.396,317.269
					c0,0-5.973,42.452-8.435,51.072c-2.722,9.531-1.472,10-4.888,12.549c-10.012,7.471-8.373,10.932-4.985,13.474
					c3.388,2.542,8.688,7.259,8.688,7.259"/>
				<path style="fill:none;stroke:#332737;stroke-linecap:round;stroke-linejoin:round;stroke-miterlimit:10;" d="M247.845,320.93
					c0,0-35.348-12.777-56.866-19.999"/>
				<path style="fill:none;stroke:#332737;stroke-linecap:round;stroke-linejoin:round;stroke-miterlimit:10;" d="M225.246,345.891
					c0,0,0.114-4.995,1.62-10.716"/>
				<path style="fill:#3D2A40;" d="M100.52,306.65c0,0-5.94,31.819,14.278,36.654s70.652,2.587,70.652,2.587
					s2.464-42.736,45.965-65.182l-54.938-8.372L100.52,306.65z"/>
				<path style="fill:none;stroke:#332737;stroke-linecap:round;stroke-linejoin:round;stroke-miterlimit:10;" d="M213.903,280.708
					c0,0-41.452,31.422-40.535,65.551"/>
			</g>
			<g>
				<path style="fill:#B66155;" d="M98.128,197.412c0,0,12.106-5.764,21.834-7.117l21.277-0.852l18.928,4.287
					c0,0-9.518,9.636-25.133,12.34C119.418,208.775,98.128,197.412,98.128,197.412z"/>
				<path style="fill:#532A2F;" d="M144.397,131.214c0,0,5.252,1.464,7.571,3.683c2.318,2.219,1.922,30.942,2.783,49.65l-6.87,0.83
					l-1.482-4.394l-0.207,4.431l-10.175,0.221C136.017,185.636,125.31,135.499,144.397,131.214z"/>
				<polygon style="fill:#B66155;" points="117.605,153.258 119.961,190.296 141.238,189.443 138.868,150.568 				"/>
				<path style="fill:#332737;" d="M140.957,184.831l-1.055-17.305l-14.559,0.317C125.342,167.843,126.381,185.845,140.957,184.831z
					"/>
				<path style="fill:#B66155;" d="M152.625,158.235c-0.203,2.277-0.711,4.755-1.582,7.448c-0.054,0.162-0.108,0.312-0.173,0.474
					c-1.925,5.424-6.17,9.143-11.871,9.267c-9.83,0.214-21.08-2.617-21.492-21.554c-0.236-10.828,6.638-16.095,16.479-16.31
					C142.497,137.375,153.913,143.587,152.625,158.235z"/>
				<path style="fill:#532A2F;" d="M145.128,136.446c0,0-4.876,10.854-24.259,13.996c0,0-0.69,30.245,6.943,37.183
					c0,0-1.687,0.53-4.417,1.094l-1.529-2.778l0.067,3.063c-0.72,0.142-1.497,0.274-2.31,0.383l-2.574-5.946l-0.699,6.361
					c-2.531,0.25-5.305,0.379-8.165,0.235l-1.439-5.465l-0.975,5.277c-1.196-0.123-2.393-0.292-3.58-0.53
					c0,0,0.646-49.955,1.922-54.068c1.265-4.113,24.015-10.69,30.599-9.743C142.896,126.695,146.439,132.389,145.128,136.446z"/>
				<path style="fill:#332737;" d="M137.509,152.87c0.013,0.609-0.469,1.113-1.078,1.126c-0.609,0.013-1.113-0.469-1.126-1.078
					c-0.013-0.608,0.469-1.112,1.078-1.126C136.992,151.779,137.496,152.261,137.509,152.87z"/>
				<path style="fill:#332737;" d="M149.373,152.611c0.013,0.609-0.469,1.113-1.078,1.126c-0.608,0.013-1.113-0.469-1.126-1.078
					c-0.013-0.609,0.469-1.113,1.078-1.126C148.856,151.52,149.36,152.003,149.373,152.611z"/>
				<path style="fill:none;stroke:#332737;stroke-linecap:round;stroke-linejoin:round;stroke-miterlimit:10;" d="M143.136,153.85
					c0,0,2.683,4.649,2.486,6.01c-0.174,1.206-3.193,0.655-3.193,0.655"/>
				<path style="fill:#FFFFFF;" d="M142.087,165.864c-1.793,0.294-3.634,0.205-5.403-0.263c0,0,0.127,5.831,2.82,5.545
					C142.196,170.861,142.087,165.864,142.087,165.864z"/>
				<path style="fill:#9E4835;" d="M137.697,161.515c0.049,2.243-1.73,4.102-3.974,4.151c-2.243,0.049-4.102-1.73-4.151-3.974
					c-0.049-2.243,1.73-4.102,3.974-4.151C135.79,157.492,137.648,159.271,137.697,161.515z"/>
				<path style="fill:#9E4835;" d="M152.625,158.235c-0.203,2.277-0.711,4.755-1.582,7.448c-0.054,0.162-0.108,0.312-0.173,0.474
					c-1.697-0.445-2.969-1.978-3.01-3.836c-0.049-2.237,1.724-4.1,3.972-4.149C152.095,158.167,152.36,158.184,152.625,158.235z"/>
				<path style="fill:#B66155;" d="M185.45,214.273c1.88-11.103,4.972-44.111,4.972-44.111s-4.019-14.04-2.426-16.554
					c1.593-2.514,5.581-0.179,5.595,2.492c0.014,2.671,1.4,3.804,2.294,2.569c0.894-1.235,9.185-14.348,12.167-9.366
					c0,0,4.781-1.18,4.379,2.423c0,0,4.038,0.294,2.313,3.395c0,0,3.843,0.25,2.25,2.764c-1.593,2.514-10.365,9.567-10.948,15.798
					c-0.583,6.23-3.29,64.911-8.886,71.303c-4.791,5.471-32.583-14.767-32.583-14.767l9.701-21.712L185.45,214.273z"/>
				<path style="fill:none;stroke:#332737;stroke-linecap:round;stroke-linejoin:round;stroke-miterlimit:10;" d="M208.052,149.302
					c0,0-3.642,3.823-5.384,6.319"/>
				<path style="fill:none;stroke:#332737;stroke-linecap:round;stroke-linejoin:round;stroke-miterlimit:10;" d="M212.431,151.726
					c0,0-2.978,2.89-5.408,5.502"/>
				<path style="fill:none;stroke:#332737;stroke-linecap:round;stroke-linejoin:round;stroke-miterlimit:10;" d="M214.744,155.12
					c0,0-3.733,1.911-5.128,4.326"/>
				<path style="fill:none;stroke:#332737;stroke-linecap:round;stroke-linejoin:round;stroke-miterlimit:10;" d="M200.193,155.585
					c0,0,6.531-0.865,10.481,5.283"/>
				<path style="fill:#FEB459;" d="M106.366,192.683c1.546-0.513,14.279,5.069,21.509,4.4c12.415-1.149,21.107-8.284,22.953-8.779
					c1.846-0.495,10.462,2.447,11.652,2.822c1.19,0.375,22.97,23.147,22.97,23.147l-21.006,18.157c0,0,6.519,30.784,12.033,39.906
					c0,0-42.501,28.664-75.958,34.314c0,0-5.276-26.802-1.884-58.198l-24.855-4.893c0,0,9.045-31.978,11.13-36.399
					C86.995,202.738,106.366,192.683,106.366,192.683z"/>
				<path style="fill:none;stroke:#ED9354;stroke-linecap:round;stroke-linejoin:round;stroke-miterlimit:10;" d="M99.318,298.85
					c0,0,49.457-14.417,74.049-34.792"/>

					<line style="fill:none;stroke:#ED9354;stroke-linecap:round;stroke-linejoin:round;stroke-miterlimit:10;" x1="75.781" y1="236.566" x2="99.009" y2="242.247"/>

					<line style="fill:none;stroke:#ED9354;stroke-linecap:round;stroke-linejoin:round;stroke-miterlimit:10;" x1="163.809" y1="223.534" x2="181.097" y2="209.741"/>
				<path style="fill:none;stroke:#332737;stroke-linecap:round;stroke-linejoin:round;stroke-miterlimit:10;" d="M162.58,219.987
					c2.032,4.87,3.04,10.588,0.739,15.337c-2.172,4.482-6.923,7.239-11.769,8.391"/>
				<path style="fill:none;stroke:#332737;stroke-linecap:round;stroke-linejoin:round;stroke-miterlimit:10;" d="M122.839,247.959
					c5.086,2.183,18.049-0.382,18.226-7.636"/>
				<path style="fill:none;stroke:#ED9354;stroke-linecap:round;stroke-linejoin:round;stroke-miterlimit:10;" d="M103.745,193.417
					c0,0,10.429,9.251,23.465,7.361c0,0,4.93,5.119,6.377,5.206c1.447,0.087,2.82-6.971,2.82-6.971s13.704-3.872,18.44-10.173"/>
				<path style="fill:none;stroke:#332737;stroke-linecap:round;stroke-linejoin:round;stroke-miterlimit:10;" d="M98.636,248.451
					c0,0,1.166-14.48,4.238-23.844"/>

					<ellipse transform="matrix(1 -0.0022 0.0022 1 -0.3382 0.2414)" style="fill:#FEF1EE;" cx="111.697" cy="156.792" rx="11.133" ry="12.576"/>
				<path style="fill:#FEF1EE;" d="M116.652,150.735c0,0,0.252-21.173,13.539-25.111c0,0-10.553-2.421-16.874,2.305
					c-6.321,4.726-8.135,22.701-8.135,22.701L116.652,150.735z"/>
				<path style="fill:none;stroke:#332737;stroke-linecap:round;stroke-linejoin:round;stroke-miterlimit:10;" d="M116.505,156.781
					c0.009,4.354-3.108,7.891-6.962,7.899c-3.855,0.008-6.987-3.515-6.997-7.869c-0.009-4.354,3.108-7.891,6.962-7.899
					C113.363,148.904,116.495,152.427,116.505,156.781z"/>
				<path style="fill:#B66155;" d="M73.781,243.559c0,0-5.927,36.241-2.526,42.027c2.856,4.858,70.608,13.996,70.608,13.996
					l6.376-15.805l-50.501-11.908l0.897-23.418L73.781,243.559z"/>
				<path style="fill:#B66155;" d="M148.24,283.776c0,0,15.375,0.924,17.766,1.068c2.391,0.144,14.349,10.882,14.069,12.509
					c-0.28,1.627-3.298,2.568-8.384-0.295c0,0,1.564,3.062,0.794,4.363c-0.77,1.301-3.703,1.49-3.703,1.49s-0.484,1.98-1.289,3.21
					c-0.805,1.23-8.911,2.022-10.323,1.389c-1.412-0.633-3.348-0.803-3.699-2.393c-0.494-2.234,4.017-2.885,4.017-2.885
					s-11.299,2.791-15.622-2.651L148.24,283.776z"/>
				<path style="fill:none;stroke:#332737;stroke-linecap:round;stroke-linejoin:round;stroke-miterlimit:10;" d="M155.998,302.323
					c0,0,5.136,0.175,8.335-1.391"/>
				<path style="fill:none;stroke:#332737;stroke-linecap:round;stroke-linejoin:round;stroke-miterlimit:10;" d="M97.739,271.869
					c0,0-4.668-1.262-8.133-1.319"/>

					<line style="fill:none;stroke:#332737;stroke-linecap:round;stroke-linejoin:round;stroke-miterlimit:10;" x1="185.45" y1="214.273" x2="182.481" y2="224.608"/>
			</g>
		</g>
	</g>
</g>
</svg>
